<svg width="40" height="41" viewBox="0 0 40 41" fill="none" xmlns="http://www.w3.org/2000/svg">
<rect y="0.665039" width="40" height="40" rx="20" fill="#1B365D" fill-opacity="0.1"/>
<path d="M28.75 24.1725C28.75 24.9892 28.5692 25.765 28.2075 26.5C27.8575 27.2 27.3675 27.798 26.7375 28.2938C26.1075 28.7896 25.4017 29.125 24.62 29.3L24.06 27.62C24.585 27.5384 25.0633 27.3459 25.495 27.0425C25.9267 26.7392 26.2708 26.36 26.5275 25.905H24.375C24.06 25.905 23.7683 25.8292 23.5 25.6775C23.2317 25.5259 23.0188 25.3159 22.8612 25.0475C22.7037 24.7792 22.625 24.4817 22.625 24.155V20.655C22.625 20.34 22.7037 20.0484 22.8612 19.78C23.0188 19.5117 23.2317 19.2988 23.5 19.1413C23.7683 18.9838 24.06 18.905 24.375 18.905H26.9475C26.8075 17.7734 26.4108 16.7409 25.7575 15.8075C25.1042 14.8742 24.2817 14.1392 23.29 13.6025C22.2633 13.0542 21.1667 12.78 20 12.78C18.8333 12.78 17.7367 13.0542 16.71 13.6025C15.7183 14.1392 14.8958 14.8742 14.2425 15.8075C13.5892 16.7409 13.1925 17.7734 13.0525 18.905H15.625C15.94 18.905 16.2317 18.9838 16.5 19.1413C16.7683 19.2988 16.9812 19.5117 17.1388 19.78C17.2962 20.0484 17.375 20.34 17.375 20.655V24.155C17.375 24.4817 17.2962 24.7792 17.1388 25.0475C16.9812 25.3159 16.7683 25.5259 16.5 25.6775C16.2317 25.8292 15.94 25.905 15.625 25.905H13C12.685 25.905 12.3933 25.8292 12.125 25.6775C11.8567 25.5259 11.6438 25.3159 11.4862 25.0475C11.3287 24.7792 11.25 24.4817 11.25 24.155V19.78C11.25 18.6017 11.4775 17.47 11.9325 16.385C12.3758 15.335 13.0029 14.4075 13.8138 13.6025C14.6246 12.7975 15.5492 12.1734 16.5875 11.73C17.6725 11.2634 18.81 11.03 20 11.03C21.19 11.03 22.3275 11.2634 23.4125 11.73C24.4508 12.1734 25.3754 12.7975 26.1862 13.6025C26.9971 14.4075 27.6242 15.335 28.0675 16.385C28.5225 17.47 28.75 18.6017 28.75 19.78V24.1725ZM27 24.155V20.655H24.375V24.155H27ZM13 20.655V24.155H15.625V20.655H13Z" fill="#1B365D"/>
</svg>
