<svg width="37" height="44" viewBox="0 0 37 44" fill="none" xmlns="http://www.w3.org/2000/svg">
<path d="M15.7783 25.8537V29.7464C13.6482 29.7464 11.6628 30.2784 9.82196 31.3424C8.03376 32.3805 6.61372 33.7689 5.56183 35.5076C4.48365 37.3242 3.94456 39.2965 3.94456 41.4245H0C0 38.5958 0.72317 35.9747 2.16951 33.5612C3.56326 31.1997 5.4435 29.3312 7.81023 27.9558C10.2559 26.5544 12.9119 25.8537 15.7783 25.8537ZM15.7783 23.9074C13.6482 23.9074 11.6628 23.3754 9.82196 22.3114C8.03376 21.2733 6.61372 19.872 5.56183 18.1073C4.48365 16.2907 3.94456 14.3249 3.94456 12.2099C3.94456 10.0948 4.48365 8.12902 5.56183 6.31244C6.61372 4.5737 8.03376 3.18531 9.82196 2.14726C11.6628 1.08326 13.6548 0.551262 15.798 0.551262C17.9412 0.551262 19.9332 1.08326 21.774 2.14726C23.5359 3.18531 24.9428 4.5737 25.9947 6.31244C27.0728 8.12902 27.6119 10.0948 27.6119 12.2099C27.6119 14.3249 27.0728 16.2907 25.9947 18.1073C24.9428 19.872 23.5359 21.2733 21.774 22.3114C19.9332 23.3754 17.9346 23.9074 15.7783 23.9074ZM15.7783 20.0147C17.1983 20.0147 18.5131 19.6644 19.7228 18.9637C20.9325 18.263 21.8923 17.3158 22.6023 16.122C23.3124 14.9283 23.6674 13.6307 23.6674 12.2293C23.6674 10.828 23.3124 9.53039 22.6023 8.33664C21.8923 7.14288 20.9325 6.19566 19.7228 5.49498C18.5131 4.79429 17.1983 4.44395 15.7783 4.44395C14.3582 4.44395 13.0434 4.79429 11.8337 5.49498C10.624 6.19566 9.66418 7.14288 8.95416 8.33664C8.24414 9.53039 7.88913 10.828 7.88913 12.2293C7.88913 13.6307 8.24414 14.9283 8.95416 16.122C9.66418 17.3158 10.624 18.263 11.8337 18.9637C13.0434 19.6644 14.3582 20.0147 15.7783 20.0147ZM27.6119 40.4513L21.8134 43.4487L22.9179 37.0647L18.2239 32.5881L24.7324 31.6538L27.6119 25.8537L30.5309 31.6538L37 32.5881L32.306 37.0647L33.4104 43.4487L27.6119 40.4513Z" fill="#002E85"/>
</svg>
