<svg width="41" height="40" viewBox="0 0 41 40" fill="none" xmlns="http://www.w3.org/2000/svg">
<path d="M20.5 18C22.3133 18 23.9867 18.4467 25.52 19.34C27.0533 20.2333 28.2667 21.4467 29.16 22.98C30.0533 24.5133 30.5 26.1867 30.5 28V40H26.5V28C26.5 26.96 26.2467 25.9933 25.74 25.1C25.2333 24.2067 24.5533 23.4867 23.7 22.94C22.8467 22.3933 21.9 22.08 20.86 22H20.5C19.46 22 18.4933 22.2533 17.6 22.76C16.7067 23.2667 15.9867 23.9467 15.44 24.8C14.8933 25.6533 14.58 26.6 14.5 27.64V40H10.5V28C10.5 26.1867 10.9467 24.5133 11.84 22.98C12.7333 21.4467 13.9467 20.2333 15.48 19.34C17.0133 18.4467 18.6867 18 20.5 18ZM7.5 24C8.06 24 8.60667 24.0667 9.14 24.2C8.79333 25.2133 8.58 26.2533 8.5 27.32V28.16C8.26 28.08 8.02 28.0267 7.78 28H7.5C6.72667 28 6.05333 28.26 5.48 28.78C4.90667 29.3 4.58 29.9467 4.5 30.72V31V40H0.5V31C0.5 29.72 0.813333 28.5467 1.44 27.48C2.06667 26.4133 2.91333 25.5667 3.98 24.94C5.04667 24.3133 6.22 24 7.5 24ZM33.5 24C34.78 24 35.9533 24.3133 37.02 24.94C38.0867 25.5667 38.9333 26.4133 39.56 27.48C40.1867 28.5467 40.5 29.72 40.5 31V40H36.5V31C36.5 30.2267 36.24 29.5533 35.72 28.98C35.2 28.4067 34.5533 28.08 33.78 28H33.5C33.1533 28 32.82 28.0533 32.5 28.16V28C32.5 26.6933 32.3 25.4267 31.9 24.2C32.4067 24.0667 32.94 24 33.5 24ZM7.5 12C8.40667 12 9.24 12.2267 10 12.68C10.76 13.1333 11.3667 13.74 11.82 14.5C12.2733 15.26 12.5 16.0933 12.5 17C12.5 17.9067 12.2733 18.74 11.82 19.5C11.3667 20.26 10.76 20.8667 10 21.32C9.24 21.7733 8.40667 22 7.5 22C6.59333 22 5.76 21.7733 5 21.32C4.24 20.8667 3.63333 20.26 3.18 19.5C2.72667 18.74 2.5 17.9067 2.5 17C2.5 16.0933 2.72667 15.26 3.18 14.5C3.63333 13.74 4.24 13.1333 5 12.68C5.76 12.2267 6.59333 12 7.5 12ZM33.5 12C34.4067 12 35.24 12.2267 36 12.68C36.76 13.1333 37.3667 13.74 37.82 14.5C38.2733 15.26 38.5 16.0933 38.5 17C38.5 17.9067 38.2733 18.74 37.82 19.5C37.3667 20.26 36.76 20.8667 36 21.32C35.24 21.7733 34.4067 22 33.5 22C32.5933 22 31.76 21.7733 31 21.32C30.24 20.8667 29.6333 20.26 29.18 19.5C28.7267 18.74 28.5 17.9067 28.5 17C28.5 16.0933 28.7267 15.26 29.18 14.5C29.6333 13.74 30.24 13.1333 31 12.68C31.76 12.2267 32.5933 12 33.5 12ZM7.5 16C7.23333 16 7 16.1 6.8 16.3C6.6 16.5 6.5 16.7333 6.5 17C6.5 17.2667 6.6 17.5 6.8 17.7C7 17.9 7.23333 18 7.5 18C7.76667 18 8 17.9 8.2 17.7C8.4 17.5 8.5 17.2667 8.5 17C8.5 16.7333 8.4 16.5 8.2 16.3C8 16.1 7.76667 16 7.5 16ZM33.5 16C33.2333 16 33 16.1 32.8 16.3C32.6 16.5 32.5 16.7333 32.5 17C32.5 17.2667 32.6 17.5 32.8 17.7C33 17.9 33.2333 18 33.5 18C33.7667 18 34 17.9 34.2 17.7C34.4 17.5 34.5 17.2667 34.5 17C34.5 16.7333 34.4 16.5 34.2 16.3C34 16.1 33.7667 16 33.5 16ZM20.5 0C21.94 0 23.2733 0.360001 24.5 1.08C25.7267 1.8 26.7 2.77333 27.42 4C28.14 5.22667 28.5 6.56 28.5 8C28.5 9.44 28.14 10.7733 27.42 12C26.7 13.2267 25.7267 14.2 24.5 14.92C23.2733 15.64 21.94 16 20.5 16C19.06 16 17.7267 15.64 16.5 14.92C15.2733 14.2 14.3 13.2267 13.58 12C12.86 10.7733 12.5 9.44 12.5 8C12.5 6.56 12.86 5.22667 13.58 4C14.3 2.77333 15.2733 1.8 16.5 1.08C17.7267 0.360001 19.06 0 20.5 0ZM20.5 4C19.78 4 19.1133 4.18 18.5 4.54C17.8867 4.9 17.4 5.38667 17.04 6C16.68 6.61333 16.5 7.28 16.5 8C16.5 8.72 16.68 9.38667 17.04 10C17.4 10.6133 17.8867 11.1 18.5 11.46C19.1133 11.82 19.78 12 20.5 12C21.22 12 21.8867 11.82 22.5 11.46C23.1133 11.1 23.6 10.6133 23.96 10C24.32 9.38667 24.5 8.72 24.5 8C24.5 7.28 24.32 6.61333 23.96 6C23.6 5.38667 23.1133 4.9 22.5 4.54C21.8867 4.18 21.22 4 20.5 4Z" fill="#002E85"/>
</svg>
