<svg width="41" height="39" viewBox="0 0 41 39" fill="none" xmlns="http://www.w3.org/2000/svg">
<path d="M10.5 7.8V1.95C10.5 1.404 10.6933 0.942501 11.08 0.565498C11.4667 0.188499 11.94 0 12.5 0H28.5C29.06 0 29.5333 0.188499 29.92 0.565498C30.3067 0.942501 30.5 1.404 30.5 1.95V7.8H38.5C39.06 7.8 39.5333 7.9885 39.92 8.3655C40.3067 8.7425 40.5 9.204 40.5 9.75V37.05C40.5 37.596 40.3067 38.0575 39.92 38.4345C39.5333 38.8115 39.06 39 38.5 39H2.5C1.94 39 1.46667 38.8115 1.08 38.4345C0.693333 38.0575 0.5 37.596 0.5 37.05V9.75C0.5 9.204 0.693333 8.7425 1.08 8.3655C1.46667 7.9885 1.94 7.8 2.5 7.8H10.5ZM14.5 23.4H4.5V35.1H36.5V23.4H26.5V29.25H14.5V23.4ZM36.5 11.7H4.5V19.5H14.5V15.6H26.5V19.5H36.5V11.7ZM18.5 19.5V25.35H22.5V19.5H18.5ZM14.5 3.9V7.8H26.5V3.9H14.5Z" fill="#002E85"/>
</svg>
