<svg width="40" height="41" viewBox="0 0 40 41" fill="none" xmlns="http://www.w3.org/2000/svg">
<rect y="0.665039" width="40" height="40" rx="20" fill="#1B365D" fill-opacity="0.1"/>
<path d="M20 19.29C20.7933 19.29 21.5254 19.4855 22.1962 19.8763C22.8671 20.2671 23.3979 20.798 23.7887 21.4688C24.1796 22.1396 24.375 22.8717 24.375 23.665V28.915H22.625V23.665C22.625 23.21 22.5142 22.7871 22.2925 22.3963C22.0708 22.0055 21.7733 21.6905 21.4 21.4513C21.0267 21.2121 20.6125 21.075 20.1575 21.04H20C19.545 21.04 19.1221 21.1509 18.7312 21.3725C18.3404 21.5942 18.0254 21.8917 17.7863 22.265C17.5471 22.6384 17.41 23.0525 17.375 23.5075V28.915H15.625V23.665C15.625 22.8717 15.8204 22.1396 16.2112 21.4688C16.6021 20.798 17.1329 20.2671 17.8038 19.8763C18.4746 19.4855 19.2067 19.29 20 19.29ZM14.3125 21.915C14.5575 21.915 14.7967 21.9442 15.03 22.0025C14.8783 22.4459 14.785 22.9009 14.75 23.3675V23.735C14.645 23.7 14.54 23.6767 14.435 23.665H14.3125C13.9742 23.665 13.6796 23.7788 13.4288 24.0063C13.1779 24.2338 13.035 24.5167 13 24.855V24.9775V28.915H11.25V24.9775C11.25 24.4175 11.3871 23.9042 11.6612 23.4375C11.9354 22.9709 12.3058 22.6005 12.7725 22.3263C13.2392 22.0521 13.7525 21.915 14.3125 21.915ZM25.6875 21.915C26.2475 21.915 26.7608 22.0521 27.2275 22.3263C27.6942 22.6005 28.0646 22.9709 28.3388 23.4375C28.6129 23.9042 28.75 24.4175 28.75 24.9775V28.915H27V24.9775C27 24.6392 26.8863 24.3446 26.6588 24.0938C26.4312 23.843 26.1483 23.7 25.81 23.665H25.6875C25.5358 23.665 25.39 23.6884 25.25 23.735V23.665C25.25 23.0934 25.1625 22.5392 24.9875 22.0025C25.2092 21.9442 25.4425 21.915 25.6875 21.915ZM14.3125 16.665C14.7092 16.665 15.0738 16.7642 15.4062 16.9625C15.7387 17.1609 16.0042 17.4263 16.2025 17.7588C16.4008 18.0913 16.5 18.4559 16.5 18.8525C16.5 19.2492 16.4008 19.6138 16.2025 19.9463C16.0042 20.2788 15.7387 20.5442 15.4062 20.7425C15.0738 20.9409 14.7092 21.04 14.3125 21.04C13.9158 21.04 13.5512 20.9409 13.2188 20.7425C12.8863 20.5442 12.6208 20.2788 12.4225 19.9463C12.2242 19.6138 12.125 19.2492 12.125 18.8525C12.125 18.4559 12.2242 18.0913 12.4225 17.7588C12.6208 17.4263 12.8863 17.1609 13.2188 16.9625C13.5512 16.7642 13.9158 16.665 14.3125 16.665ZM25.6875 16.665C26.0842 16.665 26.4488 16.7642 26.7812 16.9625C27.1138 17.1609 27.3792 17.4263 27.5775 17.7588C27.7758 18.0913 27.875 18.4559 27.875 18.8525C27.875 19.2492 27.7758 19.6138 27.5775 19.9463C27.3792 20.2788 27.1138 20.5442 26.7812 20.7425C26.4488 20.9409 26.0842 21.04 25.6875 21.04C25.2908 21.04 24.9263 20.9409 24.5938 20.7425C24.2613 20.5442 23.9958 20.2788 23.7975 19.9463C23.5992 19.6138 23.5 19.2492 23.5 18.8525C23.5 18.4559 23.5992 18.0913 23.7975 17.7588C23.9958 17.4263 24.2613 17.1609 24.5938 16.9625C24.9263 16.7642 25.2908 16.665 25.6875 16.665ZM14.3125 18.415C14.1958 18.415 14.0938 18.4588 14.0062 18.5463C13.9188 18.6338 13.875 18.7359 13.875 18.8525C13.875 18.9692 13.9188 19.0713 14.0062 19.1588C14.0938 19.2463 14.1958 19.29 14.3125 19.29C14.4292 19.29 14.5312 19.2463 14.6188 19.1588C14.7062 19.0713 14.75 18.9692 14.75 18.8525C14.75 18.7359 14.7062 18.6338 14.6188 18.5463C14.5312 18.4588 14.4292 18.415 14.3125 18.415ZM25.6875 18.415C25.5708 18.415 25.4688 18.4588 25.3813 18.5463C25.2937 18.6338 25.25 18.7359 25.25 18.8525C25.25 18.9692 25.2937 19.0713 25.3813 19.1588C25.4688 19.2463 25.5708 19.29 25.6875 19.29C25.8042 19.29 25.9062 19.2463 25.9937 19.1588C26.0813 19.0713 26.125 18.9692 26.125 18.8525C26.125 18.7359 26.0813 18.6338 25.9937 18.5463C25.9062 18.4588 25.8042 18.415 25.6875 18.415ZM20 11.415C20.63 11.415 21.2133 11.5725 21.75 11.8875C22.2867 12.2025 22.7125 12.6284 23.0275 13.165C23.3425 13.7017 23.5 14.285 23.5 14.915C23.5 15.545 23.3425 16.1284 23.0275 16.665C22.7125 17.2017 22.2867 17.6275 21.75 17.9425C21.2133 18.2575 20.63 18.415 20 18.415C19.37 18.415 18.7867 18.2575 18.25 17.9425C17.7133 17.6275 17.2875 17.2017 16.9725 16.665C16.6575 16.1284 16.5 15.545 16.5 14.915C16.5 14.285 16.6575 13.7017 16.9725 13.165C17.2875 12.6284 17.7133 12.2025 18.25 11.8875C18.7867 11.5725 19.37 11.415 20 11.415ZM20 13.165C19.685 13.165 19.3933 13.2438 19.125 13.4013C18.8567 13.5588 18.6438 13.7717 18.4862 14.04C18.3288 14.3084 18.25 14.6 18.25 14.915C18.25 15.23 18.3288 15.5217 18.4862 15.79C18.6438 16.0584 18.8567 16.2713 19.125 16.4288C19.3933 16.5863 19.685 16.665 20 16.665C20.315 16.665 20.6067 16.5863 20.875 16.4288C21.1433 16.2713 21.3562 16.0584 21.5138 15.79C21.6713 15.5217 21.75 15.23 21.75 14.915C21.75 14.6 21.6713 14.3084 21.5138 14.04C21.3562 13.7717 21.1433 13.5588 20.875 13.4013C20.6067 13.2438 20.315 13.165 20 13.165Z" fill="#1B365D"/>
</svg>
