<svg width="45" height="45" viewBox="0 0 45 45" fill="none" xmlns="http://www.w3.org/2000/svg">
<ellipse cx="22.5" cy="22.1733" rx="22.5" ry="22.1733" fill="#DBEAFE"/>
<path d="M18.25 17.1474V14.6344C18.25 14.3999 18.3322 14.2016 18.4965 14.0397C18.6608 13.8777 18.862 13.7968 19.1 13.7968H25.9C26.138 13.7968 26.3392 13.8777 26.5035 14.0397C26.6678 14.2016 26.75 14.3999 26.75 14.6344V17.1474H30.15C30.388 17.1474 30.5892 17.2284 30.7535 17.3903C30.9178 17.5523 31 17.7505 31 17.985V29.7123C31 29.9468 30.9178 30.1451 30.7535 30.307C30.5892 30.469 30.388 30.5499 30.15 30.5499H14.85C14.612 30.5499 14.4108 30.469 14.2465 30.307C14.0822 30.1451 14 29.9468 14 29.7123V17.985C14 17.7505 14.0822 17.5523 14.2465 17.3903C14.4108 17.2284 14.612 17.1474 14.85 17.1474H18.25ZM19.95 23.8487H15.7V28.8746H29.3V23.8487H25.05V26.3616H19.95V23.8487ZM29.3 18.8227H15.7V22.1733H19.95V20.498H25.05V22.1733H29.3V18.8227ZM21.65 22.1733V24.6863H23.35V22.1733H21.65ZM19.95 15.4721V17.1474H25.05V15.4721H19.95Z" fill="#2563EB"/>
</svg>
