<svg width="45" height="45" viewBox="0 0 45 45" fill="none" xmlns="http://www.w3.org/2000/svg">
<ellipse cx="22.5" cy="22.1733" rx="22.5" ry="22.1733" fill="#F3E8FF"/>
<path d="M21.2495 25.6254V27.414C20.2708 27.414 19.3586 27.6584 18.5128 28.1473C17.6912 28.6242 17.0387 29.2621 16.5554 30.061C16.0601 30.8956 15.8124 31.8018 15.8124 32.7796H14C14 31.4799 14.3323 30.2756 14.9968 29.1667C15.6372 28.0817 16.5011 27.2232 17.5885 26.5912C18.7122 25.9474 19.9325 25.6254 21.2495 25.6254ZM21.2495 24.7312C20.2708 24.7312 19.3586 24.4867 18.5128 23.9979C17.6912 23.5209 17.0387 22.8771 16.5554 22.0663C16.0601 21.2316 15.8124 20.3284 15.8124 19.3566C15.8124 18.3849 16.0601 17.4816 16.5554 16.647C17.0387 15.8481 17.6912 15.2102 18.5128 14.7333C19.3586 14.2444 20.2738 14 21.2585 14C22.2432 14 23.1585 14.2444 24.0043 14.7333C24.8138 15.2102 25.4602 15.8481 25.9435 16.647C26.4389 17.4816 26.6866 18.3849 26.6866 19.3566C26.6866 20.3284 26.4389 21.2316 25.9435 22.0663C25.4602 22.8771 24.8138 23.5209 24.0043 23.9979C23.1585 24.4867 22.2402 24.7312 21.2495 24.7312ZM21.2495 22.9426C21.9019 22.9426 22.506 22.7817 23.0618 22.4597C23.6176 22.1378 24.0586 21.7026 24.3849 21.1541C24.7111 20.6056 24.8742 20.0094 24.8742 19.3656C24.8742 18.7217 24.7111 18.1255 24.3849 17.577C24.0586 17.0286 23.6176 16.5933 23.0618 16.2714C22.506 15.9495 21.9019 15.7885 21.2495 15.7885C20.597 15.7885 19.9929 15.9495 19.4371 16.2714C18.8813 16.5933 18.4403 17.0286 18.1141 17.577C17.7878 18.1255 17.6247 18.7217 17.6247 19.3656C17.6247 20.0094 17.7878 20.6056 18.1141 21.1541C18.4403 21.7026 18.8813 22.1378 19.4371 22.4597C19.9929 22.7817 20.597 22.9426 21.2495 22.9426ZM26.6866 32.3324L24.0224 33.7096L24.5299 30.7764L22.3731 28.7196L25.3635 28.2903L26.6866 25.6254L28.0277 28.2903L31 28.7196L28.8433 30.7764L29.3507 33.7096L26.6866 32.3324Z" fill="#2563EB"/>
</svg>
