<svg width="13" height="13" viewBox="0 0 13 13" fill="none" xmlns="http://www.w3.org/2000/svg">
<path fill-rule="evenodd" clip-rule="evenodd" d="M6.05499 7.68504L10.1286 11.7586C10.3447 11.9748 10.6379 12.0962 10.9436 12.0962C11.2493 12.0962 11.5424 11.9748 11.7586 11.7586C11.9748 11.5425 12.0962 11.2493 12.0962 10.9436C12.0962 10.6379 11.9748 10.3447 11.7586 10.1286L7.68349 6.055L11.7578 1.98143C11.8648 1.8744 11.9497 1.74734 12.0075 1.60752C12.0654 1.4677 12.0952 1.31785 12.0952 1.16652C12.0951 1.01519 12.0653 0.865352 12.0073 0.725557C11.9494 0.585761 11.8645 0.458748 11.7574 0.351769C11.6504 0.244789 11.5234 0.159938 11.3835 0.10206C11.2437 0.0441825 11.0939 0.0144115 10.9425 0.0144471C10.7912 0.0144828 10.6414 0.0443242 10.5016 0.102268C10.3618 0.160211 10.2348 0.245123 10.1278 0.352153L6.05499 4.42572L1.98141 0.352153C1.87517 0.242053 1.74807 0.154213 1.60752 0.0937597C1.46697 0.0333063 1.31579 0.00144944 1.1628 4.83204e-05C1.0098 -0.0013528 0.858064 0.0277296 0.71643 0.0855988C0.574797 0.143468 0.446107 0.228965 0.337869 0.337101C0.229631 0.445237 0.144013 0.573847 0.0860102 0.715425C0.0280075 0.857004 -0.00121797 1.00872 3.8882e-05 1.16171C0.00129573 1.31471 0.0330097 1.46592 0.0933305 1.60652C0.153651 1.74713 0.241371 1.87432 0.351371 1.98066L4.42648 6.055L0.352139 10.1293C0.242139 10.2357 0.15442 10.3629 0.094099 10.5035C0.0337781 10.6441 0.00206384 10.7953 0.00080699 10.9483C-0.000449862 11.1013 0.0287756 11.253 0.0867783 11.3946C0.144781 11.5362 0.230399 11.6648 0.338637 11.7729C0.446875 11.881 0.575565 11.9665 0.717199 12.0244C0.858832 12.0823 1.01057 12.1114 1.16357 12.11C1.31656 12.1086 1.46774 12.0767 1.60829 12.0162C1.74884 11.9558 1.87594 11.8679 1.98218 11.7578L6.05499 7.68504Z" fill="#1B365D"/>
</svg>
