<svg width="13" height="12" viewBox="0 0 13 12" fill="none" xmlns="http://www.w3.org/2000/svg">
<path d="M6.295 11.8381C5.50167 11.8381 4.74334 11.6865 4.02 11.3831C3.32778 11.0876 2.71139 10.6695 2.17084 10.129C1.63028 9.58841 1.21223 8.97202 0.91667 8.2798C0.613337 7.55647 0.46167 6.79813 0.46167 6.0048C0.46167 5.21147 0.613337 4.45313 0.91667 3.7298C1.21223 3.03758 1.63028 2.42119 2.17084 1.88063C2.71139 1.34008 3.32778 0.922024 4.02 0.626468C4.74334 0.323134 5.50167 0.171468 6.295 0.171468C7.08834 0.171468 7.84667 0.323134 8.57 0.626468C9.26223 0.922024 9.87861 1.34008 10.4192 1.88063C10.9597 2.42119 11.3778 3.03758 11.6733 3.7298C11.9767 4.45313 12.1283 5.21147 12.1283 6.0048C12.1283 6.79813 11.9767 7.55647 11.6733 8.2798C11.3778 8.97202 10.9597 9.58841 10.4192 10.129C9.87861 10.6695 9.26223 11.0876 8.57 11.3831C7.84667 11.6865 7.08834 11.8381 6.295 11.8381ZM6.295 10.6715C7.14278 10.6715 7.92834 10.4576 8.65167 10.0298C9.35167 9.61758 9.90778 9.06147 10.32 8.36147C10.7478 7.63813 10.9617 6.85258 10.9617 6.0048C10.9617 5.15702 10.7478 4.37147 10.32 3.64814C9.90778 2.94813 9.35167 2.39202 8.65167 1.9798C7.92834 1.55202 7.14278 1.33813 6.295 1.33813C5.44723 1.33813 4.66167 1.55202 3.93834 1.9798C3.23834 2.39202 2.68223 2.94813 2.27 3.64814C1.84223 4.37147 1.62834 5.15702 1.62834 6.0048C1.62834 6.85258 1.84223 7.63813 2.27 8.36147C2.68223 9.06147 3.23834 9.61758 3.93834 10.0298C4.66167 10.4576 5.44723 10.6715 6.295 10.6715ZM6.87834 6.0048H9.21167V7.17147H5.71167V3.08813H6.87834V6.0048Z" fill="#1B365D"/>
</svg>
