<svg width="14" height="14" viewBox="0 0 14 14" fill="none" xmlns="http://www.w3.org/2000/svg">
<path d="M0.760742 13.134C0.760742 12.2857 0.974778 11.4996 1.40285 10.7758C1.81535 10.0753 2.37185 9.51878 3.07233 9.10627C3.79615 8.6782 4.58225 8.46417 5.43061 8.46417C6.27897 8.46417 7.06506 8.6782 7.78889 9.10627C8.48937 9.51878 9.04586 10.0753 9.45837 10.7758C9.88644 11.4996 10.1005 12.2857 10.1005 13.134H8.93301C8.93301 12.5036 8.77345 11.916 8.45435 11.3712C8.14302 10.8419 7.72273 10.4216 7.19348 10.1103C6.64866 9.79119 6.06104 9.63163 5.43061 9.63163C4.80018 9.63163 4.21255 9.79119 3.66773 10.1103C3.13848 10.4216 2.71819 10.8419 2.40687 11.3712C2.08776 11.916 1.92821 12.5036 1.92821 13.134H0.760742ZM5.43061 7.88043C4.79239 7.88043 4.20477 7.72088 3.66773 7.40177C3.13848 7.09045 2.71819 6.67016 2.40687 6.14091C2.08776 5.60388 1.92821 5.01625 1.92821 4.37804C1.92821 3.73982 2.08776 3.1522 2.40687 2.61516C2.71819 2.08591 3.13848 1.66562 3.66773 1.3543C4.20477 1.03519 4.79239 0.875637 5.43061 0.875637C6.06882 0.875637 6.65645 1.03519 7.19348 1.3543C7.72273 1.66562 8.14302 2.08591 8.45435 2.61516C8.77345 3.1522 8.93301 3.73982 8.93301 4.37804C8.93301 5.01625 8.77345 5.60388 8.45435 6.14091C8.14302 6.67016 7.72273 7.09045 7.19348 7.40177C6.65645 7.72088 6.06882 7.88043 5.43061 7.88043ZM5.43061 6.71297C5.8509 6.71297 6.24005 6.6079 6.59807 6.39775C6.9561 6.18761 7.24018 5.90353 7.45032 5.5455C7.66047 5.18748 7.76554 4.79832 7.76554 4.37804C7.76554 3.95775 7.66047 3.56859 7.45032 3.21057C7.24018 2.85255 6.9561 2.56846 6.59807 2.35832C6.24005 2.14818 5.8509 2.0431 5.43061 2.0431C5.01032 2.0431 4.62116 2.14818 4.26314 2.35832C3.90512 2.56846 3.62103 2.85255 3.41089 3.21057C3.20075 3.56859 3.09567 3.95775 3.09567 4.37804C3.09567 4.79832 3.20075 5.18748 3.41089 5.5455C3.62103 5.90353 3.90512 6.18761 4.26314 6.39775C4.62116 6.6079 5.01032 6.71297 5.43061 6.71297ZM10.2639 8.87278C10.8087 9.11406 11.2893 9.45068 11.7057 9.88264C12.1221 10.3146 12.4432 10.803 12.6689 11.3478C12.9024 11.916 13.0191 12.5114 13.0191 13.134H11.8517C11.8517 12.4336 11.661 11.7914 11.2796 11.2077C10.906 10.6395 10.4079 10.2154 9.78526 9.93518L10.2639 8.87278ZM9.86698 2.28827C10.4585 2.52955 10.9372 2.9187 11.303 3.45574C11.6688 3.99277 11.8517 4.59207 11.8517 5.25364C11.8517 5.80624 11.7233 6.31798 11.4664 6.78885C11.2096 7.25973 10.8574 7.64305 10.4099 7.93881C9.96232 8.23457 9.47004 8.40579 8.93301 8.45249V7.27335C9.2599 7.22665 9.5576 7.10796 9.82612 6.91727C10.0946 6.72659 10.3048 6.48531 10.4565 6.19345C10.6083 5.90158 10.6842 5.58831 10.6842 5.25364C10.6842 4.8567 10.5791 4.49478 10.369 4.16789C10.1588 3.841 9.88255 3.59194 9.54009 3.42071L9.86698 2.28827Z" fill="#1B365D"/>
</svg>
