<svg width="65" height="64" viewBox="0 0 65 64" fill="none" xmlns="http://www.w3.org/2000/svg">
<rect x="0.5" width="64" height="64" rx="16" fill="#002E85" fill-opacity="0.1"/>
<path d="M32.5001 45.3333C39.8639 45.3333 45.8334 39.3638 45.8334 32C45.8334 24.6362 39.8639 18.6666 32.5001 18.6666C25.1363 18.6666 19.1667 24.6362 19.1667 32C19.1667 39.3638 25.1363 45.3333 32.5001 45.3333Z" stroke="#002E85" stroke-width="2.93333" stroke-linecap="round" stroke-linejoin="round"/>
<path d="M32.5 40C36.9183 40 40.5 36.4183 40.5 32C40.5 27.5817 36.9183 24 32.5 24C28.0817 24 24.5 27.5817 24.5 32C24.5 36.4183 28.0817 40 32.5 40Z" stroke="#002E85" stroke-width="2.93333" stroke-linecap="round" stroke-linejoin="round"/>
<path d="M32.4999 34.6666C33.9727 34.6666 35.1666 33.4727 35.1666 31.9999C35.1666 30.5272 33.9727 29.3333 32.4999 29.3333C31.0272 29.3333 29.8333 30.5272 29.8333 31.9999C29.8333 33.4727 31.0272 34.6666 32.4999 34.6666Z" stroke="#002E85" stroke-width="2.93333" stroke-linecap="round" stroke-linejoin="round"/>
</svg>
