<svg width="65" height="64" viewBox="0 0 65 64" fill="none" xmlns="http://www.w3.org/2000/svg">
<rect x="0.5" width="64" height="64" rx="16" fill="#002E85" fill-opacity="0.1"/>
<path d="M41.8334 34.6665C43.8201 32.7199 45.8334 30.3865 45.8334 27.3332C45.8334 25.3883 45.0608 23.523 43.6855 22.1478C42.3103 20.7725 40.445 19.9999 38.5001 19.9999C36.1534 19.9999 34.5001 20.6665 32.5001 22.6665C30.5001 20.6665 28.8467 19.9999 26.5001 19.9999C24.5552 19.9999 22.6899 20.7725 21.3146 22.1478C19.9394 23.523 19.1667 25.3883 19.1667 27.3332C19.1667 30.3999 21.1667 32.7332 23.1667 34.6665L32.5001 43.9999L41.8334 34.6665Z" stroke="#002E85" stroke-width="2.93333" stroke-linecap="round" stroke-linejoin="round"/>
</svg>
