<svg width="65" height="64" viewBox="0 0 65 64" fill="none" xmlns="http://www.w3.org/2000/svg">
<rect x="0.5" width="64" height="64" rx="16" fill="#002E85" fill-opacity="0.1"/>
<path d="M43.1666 33.3333C43.1666 39.9999 38.4999 43.3333 32.9533 45.2666C32.6628 45.365 32.3473 45.3603 32.0599 45.2533C26.4999 43.3333 21.8333 39.9999 21.8333 33.3333V23.9999C21.8333 23.6463 21.9737 23.3072 22.2238 23.0571C22.4738 22.8071 22.813 22.6666 23.1666 22.6666C25.8333 22.6666 29.1666 21.0666 31.4866 19.0399C31.7691 18.7986 32.1284 18.666 32.4999 18.666C32.8714 18.666 33.2308 18.7986 33.5133 19.0399C35.8466 21.0799 39.1666 22.6666 41.8333 22.6666C42.1869 22.6666 42.526 22.8071 42.7761 23.0571C43.0261 23.3072 43.1666 23.6463 43.1666 23.9999V33.3333Z" stroke="#002E85" stroke-width="2.93333" stroke-linecap="round" stroke-linejoin="round"/>
</svg>
