<svg width="65" height="64" viewBox="0 0 65 64" fill="none" xmlns="http://www.w3.org/2000/svg">
<rect x="0.5" width="64" height="64" rx="16" fill="#002E85" fill-opacity="0.1"/>
<path d="M37.8334 44V41.3333C37.8334 39.9188 37.2715 38.5623 36.2713 37.5621C35.2711 36.5619 33.9146 36 32.5001 36H24.5001C23.0856 36 21.729 36.5619 20.7288 37.5621C19.7287 38.5623 19.1667 39.9188 19.1667 41.3333V44" stroke="#002E85" stroke-width="2.93333" stroke-linecap="round" stroke-linejoin="round"/>
<path d="M28.5001 30.6665C31.4456 30.6665 33.8334 28.2787 33.8334 25.3332C33.8334 22.3877 31.4456 19.9999 28.5001 19.9999C25.5546 19.9999 23.1667 22.3877 23.1667 25.3332C23.1667 28.2787 25.5546 30.6665 28.5001 30.6665Z" stroke="#002E85" stroke-width="2.93333" stroke-linecap="round" stroke-linejoin="round"/>
<path d="M45.8333 44V41.3333C45.8324 40.1516 45.4391 39.0037 44.7151 38.0698C43.9911 37.1358 42.9774 36.4688 41.8333 36.1733" stroke="#002E85" stroke-width="2.93333" stroke-linecap="round" stroke-linejoin="round"/>
<path d="M37.8333 20.1732C38.9805 20.467 39.9973 21.1342 40.7234 22.0696C41.4496 23.0051 41.8437 24.1557 41.8437 25.3399C41.8437 26.5241 41.4496 27.6747 40.7234 28.6101C39.9973 29.5456 38.9805 30.2128 37.8333 30.5066" stroke="#002E85" stroke-width="2.93333" stroke-linecap="round" stroke-linejoin="round"/>
</svg>
