<svg xmlns="http://www.w3.org/2000/svg" xmlns:xlink="http://www.w3.org/1999/xlink" version="1.1" width="256" height="256" viewBox="0 0 256 256" xml:space="preserve">
<g style="stroke: none; stroke-width: 0; stroke-dasharray: none; stroke-linecap: butt; stroke-linejoin: miter; stroke-miterlimit: 10; fill: none; fill-rule: nonzero; opacity: 1;" transform="translate(1.4065934065934016 1.4065934065934016) scale(2.81 2.81)">
	<path d="M 79.864 77.97 H 10.136 C 4.538 77.97 0 73.432 0 67.834 V 22.166 C 0 16.568 4.538 12.03 10.136 12.03 h 69.727 C 85.462 12.03 90 16.568 90 22.166 v 45.668 C 90 73.432 85.462 77.97 79.864 77.97 z" style="stroke: none; stroke-width: 1; stroke-dasharray: none; stroke-linecap: butt; stroke-linejoin: miter; stroke-miterlimit: 10; fill: rgb(49,130,187); fill-rule: nonzero; opacity: 1;" transform=" matrix(1 0 0 1 0 0) " stroke-linecap="round"/>
	<path d="M 56.996 47.309 H 33.004 L 4.243 76.07 c 1.662 1.191 3.693 1.9 5.893 1.9 h 69.728 c 2.484 0 4.756 -0.896 6.519 -2.379 L 56.996 47.309 z" style="stroke: none; stroke-width: 1; stroke-dasharray: none; stroke-linecap: butt; stroke-linejoin: miter; stroke-miterlimit: 10; fill: rgb(42,111,159); fill-rule: nonzero; opacity: 1;" transform=" matrix(1 0 0 1 0 0) " stroke-linecap="round"/>
	<path d="M 79.864 12.03 H 10.136 c -2.71 0 -5.165 1.07 -6.984 2.802 l 34.118 37.159 c 4.148 4.551 11.31 4.551 15.458 0 l 34.114 -37.163 C 85.025 13.098 82.571 12.03 79.864 12.03 z" style="stroke: none; stroke-width: 1; stroke-dasharray: none; stroke-linecap: butt; stroke-linejoin: miter; stroke-miterlimit: 10; fill: rgb(54,140,201); fill-rule: nonzero; opacity: 1;" transform=" matrix(1 0 0 1 0 0) " stroke-linecap="round"/>
</g>
</svg>