<svg width="32" height="32" viewBox="0 0 32 32" fill="none" xmlns="http://www.w3.org/2000/svg">
<rect width="32" height="32" rx="16" fill="#E6F3FF"/>
<path d="M16 22.6667C15.0933 22.6667 14.2267 22.4934 13.4 22.1467C12.6089 21.809 11.9044 21.3312 11.2867 20.7134C10.6689 20.0956 10.1911 19.3912 9.85333 18.6001C9.50666 17.7734 9.33333 16.9067 9.33333 16.0001C9.33333 15.0934 9.50666 14.2267 9.85333 13.4001C10.1911 12.609 10.6689 11.9045 11.2867 11.2867C11.9044 10.669 12.6089 10.1912 13.4 9.85341C14.2267 9.50675 15.0933 9.33341 16 9.33341C16.9067 9.33341 17.7733 9.50675 18.6 9.85341C19.3911 10.1912 20.0956 10.669 20.7133 11.2867C21.3311 11.9045 21.8089 12.609 22.1467 13.4001C22.4933 14.2267 22.6667 15.0934 22.6667 16.0001C22.6667 16.9067 22.4933 17.7734 22.1467 18.6001C21.8089 19.3912 21.3311 20.0956 20.7133 20.7134C20.0956 21.3312 19.3911 21.809 18.6 22.1467C17.7733 22.4934 16.9067 22.6667 16 22.6667ZM16 21.3334C16.9689 21.3334 17.8667 21.089 18.6933 20.6001C19.4933 20.129 20.1289 19.4934 20.6 18.6934C21.0889 17.8667 21.3333 16.969 21.3333 16.0001C21.3333 15.0312 21.0889 14.1334 20.6 13.3067C20.1289 12.5067 19.4933 11.8712 18.6933 11.4001C17.8667 10.9112 16.9689 10.6667 16 10.6667C15.0311 10.6667 14.1333 10.9112 13.3067 11.4001C12.5067 11.8712 11.8711 12.5067 11.4 13.3067C10.9111 14.1334 10.6667 15.0312 10.6667 16.0001C10.6667 16.969 10.9111 17.8667 11.4 18.6934C11.8711 19.4934 12.5067 20.129 13.3067 20.6001C14.1333 21.089 15.0311 21.3334 16 21.3334ZM16.6667 16.0001H19.3333V17.3334H15.3333V12.6667H16.6667V16.0001Z" fill="#1B365D"/>
</svg>
