<svg width="32" height="32" viewBox="0 0 32 32" fill="none" xmlns="http://www.w3.org/2000/svg">
<rect width="32" height="32" rx="16" fill="#E6F3FF"/>
<path d="M15 9.33341L19.8667 10.8534C20.0089 10.8979 20.1222 10.9779 20.2067 11.0934C20.2911 11.209 20.3334 11.3423 20.3334 11.4934V12.6667H21.6667C21.8534 12.6667 22.0111 12.7312 22.14 12.8601C22.2689 12.989 22.3334 13.1467 22.3334 13.3334V18.6667C22.3334 18.8534 22.2689 19.0112 22.14 19.1401C22.0111 19.269 21.8534 19.3334 21.6667 19.3334H19.52C19.2534 19.6801 18.9422 19.9779 18.5867 20.2267L15 22.6667L11.4134 20.2267C10.8711 19.8534 10.4445 19.3734 10.1334 18.7867C9.82224 18.2001 9.66669 17.5779 9.66669 16.9201V11.4934C9.66669 11.3423 9.70891 11.209 9.79335 11.0934C9.8778 10.9779 9.99113 10.8979 10.1334 10.8534L15 9.33341ZM15 10.7334L11 11.9734V16.9201C11 17.329 11.0911 17.7201 11.2734 18.0934C11.4556 18.4667 11.7111 18.7779 12.04 19.0267L12.16 19.1201L15 21.0534L17.52 19.3334H14.3334C14.1467 19.3334 13.9889 19.269 13.86 19.1401C13.7311 19.0112 13.6667 18.8534 13.6667 18.6667V13.3334C13.6667 13.1467 13.7311 12.989 13.86 12.8601C13.9889 12.7312 14.1467 12.6667 14.3334 12.6667H19V11.9734L15 10.7334ZM15 16.0001V18.0001H21V16.0001H15ZM15 14.6667H21V14.0001H15V14.6667Z" fill="#1B365D"/>
</svg>
