<svg xmlns="http://www.w3.org/2000/svg" xmlns:xlink="http://www.w3.org/1999/xlink" version="1.1" width="256" height="256" viewBox="0 0 256 256" xml:space="preserve">
<g style="stroke: none; stroke-width: 0; stroke-dasharray: none; stroke-linecap: butt; stroke-linejoin: miter; stroke-miterlimit: 10; fill: none; fill-rule: nonzero; opacity: 1;" transform="translate(1.4065934065934016 1.4065934065934016) scale(2.81 2.81)">
	<path d="M 63.252 90 c -8.982 0 -17.425 -3.497 -23.776 -9.849 L 9.84 50.516 c -13.11 -13.11 -13.11 -34.443 0 -47.553 c 2.056 -2.057 4.897 -3.126 7.804 -2.943 c 2.903 0.187 5.586 1.614 7.364 3.918 l 8.106 10.507 c 2.579 3.343 2.272 8.114 -0.713 11.1 c -1.96 1.96 -3.039 4.566 -3.039 7.337 s 1.079 5.377 3.039 7.337 L 49.772 57.59 c 4.047 4.045 10.63 4.045 14.675 0 c 2.985 -2.985 7.756 -3.292 11.101 -0.713 l 10.506 8.106 c 2.304 1.777 3.731 4.461 3.918 7.363 c 0.187 2.903 -0.887 5.748 -2.943 7.805 C 80.678 86.503 72.233 90 63.252 90 z" style="stroke: none; stroke-width: 1; stroke-dasharray: none; stroke-linecap: butt; stroke-linejoin: miter; stroke-miterlimit: 10; fill: rgb(39,86,193); fill-rule: nonzero; opacity: 1;" transform=" matrix(1 0 0 1 0 0) " stroke-linecap="round"/>
</g>
</svg>