<svg width="22" height="24" viewBox="0 0 22 24" fill="none" xmlns="http://www.w3.org/2000/svg">
<path d="M7.08523 1.60604C6.75439 0.770532 5.88216 0.325825 5.04861 0.563901L1.26752 1.64198C0.519899 1.85759 0 2.56733 0 3.37589C0 14.4891 8.61915 23.5 19.2492 23.5C20.0226 23.5 20.7014 22.9565 20.9077 22.1749L21.9389 18.2219C22.1666 17.3505 21.7412 16.4386 20.942 16.0927L16.8172 14.2959C16.1169 13.9905 15.3048 14.2016 14.8279 14.817L13.092 17.0315C10.0671 15.5357 7.61802 12.9753 6.18723 9.81291L8.30549 8.00264C8.89414 7.49953 9.09608 6.65504 8.80391 5.92284L7.08523 1.61053V1.60604Z" fill="white"/>
</svg>
