<svg width="21" height="21" viewBox="0 0 21 21" fill="none" xmlns="http://www.w3.org/2000/svg">
<path d="M18.75 11.8723H11.875V18.7473C11.875 19.1119 11.7301 19.4617 11.4723 19.7195C11.2144 19.9774 10.8647 20.1223 10.5 20.1223C10.1353 20.1223 9.78559 19.9774 9.52773 19.7195C9.26987 19.4617 9.125 19.1119 9.125 18.7473V11.8723H2.25C1.88533 11.8723 1.53559 11.7274 1.27773 11.4695C1.01987 11.2117 0.875 10.8619 0.875 10.4973C0.875 10.1326 1.01987 9.78284 1.27773 9.52498C1.53559 9.26712 1.88533 9.12225 2.25 9.12225H9.125V2.24725C9.125 1.88258 9.26987 1.53284 9.52773 1.27498C9.78559 1.01712 10.1353 0.872253 10.5 0.872253C10.8647 0.872253 11.2144 1.01712 11.4723 1.27498C11.7301 1.53284 11.875 1.88258 11.875 2.24725V9.12225H18.75C19.1147 9.12225 19.4644 9.26712 19.7223 9.52498C19.9801 9.78284 20.125 10.1326 20.125 10.4973C20.125 10.8619 19.9801 11.2117 19.7223 11.4695C19.4644 11.7274 19.1147 11.8723 18.75 11.8723Z" fill="#4B5563"/>
</svg>
