<svg width="65" height="64" viewBox="0 0 65 64" fill="none" xmlns="http://www.w3.org/2000/svg">
<rect x="0.25" width="64" height="64" rx="32" fill="#1B365D"/>
<path d="M27.3548 39.3196C26.1332 39.3149 25.082 39.0142 24.2013 38.4176C23.3254 37.821 22.6507 36.9569 22.1772 35.8253C21.7085 34.6937 21.4764 33.3324 21.4812 31.7415C21.4812 30.1553 21.7156 28.8035 22.1843 27.6861C22.6578 26.5687 23.3325 25.7187 24.2085 25.1364C25.0891 24.5492 26.1379 24.2557 27.3548 24.2557C28.5716 24.2557 29.618 24.5492 30.494 25.1364C31.3746 25.7235 32.0517 26.5758 32.5252 27.6932C32.9987 28.8059 33.2331 30.1553 33.2283 31.7415C33.2283 33.3371 32.9916 34.7008 32.5181 35.8324C32.0494 36.964 31.377 37.8281 30.5011 38.4247C29.6251 39.0213 28.5763 39.3196 27.3548 39.3196ZM27.3548 36.7699C28.1881 36.7699 28.8533 36.3509 29.3505 35.5128C29.8477 34.6747 30.0939 33.4176 30.0891 31.7415C30.0891 30.6383 29.9755 29.7197 29.7482 28.9858C29.5257 28.2519 29.2085 27.7003 28.7965 27.331C28.3893 26.9616 27.9087 26.777 27.3548 26.777C26.5262 26.777 25.8633 27.1913 25.3661 28.0199C24.869 28.8485 24.618 30.089 24.6133 31.7415C24.6133 32.8589 24.7246 33.7917 24.9471 34.5398C25.1744 35.2831 25.494 35.8419 25.9059 36.2159C26.3178 36.5852 26.8008 36.7699 27.3548 36.7699ZM41.7493 24.4545V39H38.674V27.3736H38.5888L35.2578 29.4616V26.7344L38.8587 24.4545H41.7493Z" fill="white"/>
</svg>
