<svg width="65" height="64" viewBox="0 0 65 64" fill="none" xmlns="http://www.w3.org/2000/svg">
<rect x="0.25" width="64" height="64" rx="32" fill="#1B365D"/>
<path d="M25.9485 39.3196C24.7269 39.3149 23.6758 39.0142 22.7951 38.4176C21.9192 37.821 21.2444 36.9569 20.771 35.8253C20.3022 34.6937 20.0702 33.3324 20.0749 31.7415C20.0749 30.1553 20.3093 28.8035 20.7781 27.6861C21.2515 26.5687 21.9263 25.7187 22.8022 25.1364C23.6829 24.5492 24.7317 24.2557 25.9485 24.2557C27.1654 24.2557 28.2118 24.5492 29.0877 25.1364C29.9684 25.7235 30.6455 26.5758 31.119 27.6932C31.5924 28.8059 31.8268 30.1553 31.8221 31.7415C31.8221 33.3371 31.5853 34.7008 31.1119 35.8324C30.6431 36.964 29.9708 37.8281 29.0948 38.4247C28.2189 39.0213 27.1701 39.3196 25.9485 39.3196ZM25.9485 36.7699C26.7818 36.7699 27.4471 36.3509 27.9442 35.5128C28.4414 34.6747 28.6876 33.4176 28.6829 31.7415C28.6829 30.6383 28.5692 29.7197 28.342 28.9858C28.1194 28.2519 27.8022 27.7003 27.3903 27.331C26.9831 26.9616 26.5025 26.777 25.9485 26.777C25.1199 26.777 24.457 27.1913 23.9599 28.0199C23.4627 28.8485 23.2118 30.089 23.207 31.7415C23.207 32.8589 23.3183 33.7917 23.5408 34.5398C23.7681 35.2831 24.0877 35.8419 24.4996 36.2159C24.9116 36.5852 25.3945 36.7699 25.9485 36.7699ZM34.0149 39V36.7841L39.1925 31.9901C39.6328 31.5639 40.0021 31.1804 40.3004 30.8395C40.6035 30.4986 40.8331 30.1648 40.9893 29.8381C41.1456 29.5066 41.2237 29.1491 41.2237 28.7656C41.2237 28.3395 41.1267 27.9725 40.9325 27.6648C40.7384 27.3523 40.4732 27.1132 40.1371 26.9474C39.8009 26.777 39.4197 26.6918 38.9936 26.6918C38.5485 26.6918 38.1603 26.7817 37.8288 26.9616C37.4974 27.1416 37.2417 27.3996 37.0618 27.7358C36.8819 28.072 36.7919 28.4721 36.7919 28.9361H33.8729C33.8729 27.9844 34.0883 27.1581 34.5192 26.4574C34.95 25.7566 35.5537 25.2145 36.3303 24.831C37.1068 24.4474 38.0017 24.2557 39.0149 24.2557C40.0566 24.2557 40.9633 24.4403 41.7351 24.8097C42.5116 25.1742 43.1153 25.6809 43.5462 26.3295C43.977 26.9782 44.1925 27.7216 44.1925 28.5597C44.1925 29.1089 44.0836 29.651 43.8658 30.1861C43.6527 30.7211 43.2715 31.3153 42.7223 31.9688C42.1731 32.6174 41.3989 33.3963 40.3999 34.3054L38.2763 36.3864V36.4858H44.3842V39H34.0149Z" fill="white"/>
</svg>
