<svg width="65" height="64" viewBox="0 0 65 64" fill="none" xmlns="http://www.w3.org/2000/svg">
<rect x="0.75" width="64" height="64" rx="32" fill="#1B365D"/>
<path d="M26.1555 39.3196C24.9339 39.3149 23.8828 39.0142 23.0021 38.4176C22.1262 37.821 21.4515 36.9569 20.978 35.8253C20.5092 34.6937 20.2772 33.3324 20.282 31.7415C20.282 30.1553 20.5163 28.8035 20.9851 27.6861C21.4586 26.5687 22.1333 25.7187 23.0092 25.1364C23.8899 24.5492 24.9387 24.2557 26.1555 24.2557C27.3724 24.2557 28.4188 24.5492 29.2947 25.1364C30.1754 25.7235 30.8525 26.5758 31.326 27.6932C31.7995 28.8059 32.0339 30.1553 32.0291 31.7415C32.0291 33.3371 31.7924 34.7008 31.3189 35.8324C30.8501 36.964 30.1778 37.8281 29.3018 38.4247C28.4259 39.0213 27.3771 39.3196 26.1555 39.3196ZM26.1555 36.7699C26.9889 36.7699 27.6541 36.3509 28.1513 35.5128C28.6484 34.6747 28.8946 33.4176 28.8899 31.7415C28.8899 30.6383 28.7763 29.7197 28.549 28.9858C28.3265 28.2519 28.0092 27.7003 27.5973 27.331C27.1901 26.9616 26.7095 26.777 26.1555 26.777C25.3269 26.777 24.6641 27.1913 24.1669 28.0199C23.6697 28.8485 23.4188 30.089 23.4141 31.7415C23.4141 32.8589 23.5253 33.7917 23.7479 34.5398C23.9751 35.2831 24.2947 35.8419 24.7067 36.2159C25.1186 36.5852 25.6016 36.7699 26.1555 36.7699ZM39.5984 39.1989C38.5378 39.1989 37.5932 39.0166 36.7646 38.652C35.9407 38.2827 35.2897 37.776 34.8114 37.1321C34.3379 36.4834 34.0941 35.7353 34.0799 34.8878H37.1765C37.1954 35.2429 37.3114 35.5554 37.5245 35.8253C37.7423 36.0904 38.0311 36.2964 38.391 36.4432C38.7508 36.59 39.1557 36.6634 39.6055 36.6634C40.0742 36.6634 40.4885 36.5805 40.8484 36.4148C41.2082 36.2491 41.4899 36.0194 41.6935 35.7259C41.8971 35.4323 41.9989 35.0937 41.9989 34.7102C41.9989 34.322 41.89 33.9787 41.6722 33.6804C41.4592 33.3774 41.1514 33.1406 40.7489 32.9702C40.3512 32.7997 39.8777 32.7145 39.3285 32.7145H37.9719V30.456H39.3285C39.7925 30.456 40.2021 30.3755 40.5572 30.2145C40.917 30.0535 41.1964 29.831 41.3952 29.5469C41.5941 29.258 41.6935 28.9219 41.6935 28.5384C41.6935 28.1738 41.6059 27.8542 41.4308 27.5795C41.2603 27.3002 41.0188 27.0824 40.7063 26.9261C40.3986 26.7699 40.0387 26.6918 39.6268 26.6918C39.2101 26.6918 38.829 26.7675 38.4833 26.919C38.1377 27.0658 37.8607 27.2765 37.6523 27.5511C37.444 27.8258 37.3327 28.1477 37.3185 28.517H34.3711C34.3853 27.679 34.6244 26.9403 35.0884 26.3011C35.5524 25.6619 36.1774 25.1624 36.9634 24.8026C37.7541 24.438 38.6467 24.2557 39.641 24.2557C40.6448 24.2557 41.5231 24.438 42.2759 24.8026C43.0288 25.1671 43.6135 25.6596 44.0302 26.2798C44.4516 26.8954 44.6599 27.5866 44.6552 28.3537C44.6599 29.1681 44.4066 29.8475 43.8952 30.392C43.3886 30.9366 42.7281 31.2822 41.9137 31.429V31.5426C42.9838 31.6799 43.7982 32.0516 44.3569 32.6577C44.9203 33.259 45.1997 34.0118 45.195 34.9162C45.1997 35.7448 44.9606 36.4811 44.4776 37.125C43.9994 37.7689 43.3389 38.2756 42.4961 38.6449C41.6533 39.0142 40.6874 39.1989 39.5984 39.1989Z" fill="white"/>
</svg>
