<svg width="65" height="64" viewBox="0 0 65 64" fill="none" xmlns="http://www.w3.org/2000/svg">
<rect x="0.25" width="64" height="64" rx="32" fill="#1B365D"/>
<path d="M25.47 39.3196C24.2484 39.3149 23.1973 39.0142 22.3166 38.4176C21.4406 37.821 20.7659 36.9569 20.2924 35.8253C19.8237 34.6937 19.5917 33.3324 19.5964 31.7415C19.5964 30.1553 19.8308 28.8035 20.2995 27.6861C20.773 26.5687 21.4477 25.7187 22.3237 25.1364C23.2044 24.5492 24.2531 24.2557 25.47 24.2557C26.6868 24.2557 27.7333 24.5492 28.6092 25.1364C29.4899 25.7235 30.167 26.5758 30.6404 27.6932C31.1139 28.8059 31.3483 30.1553 31.3436 31.7415C31.3436 33.3371 31.1068 34.7008 30.6333 35.8324C30.1646 36.964 29.4922 37.8281 28.6163 38.4247C27.7404 39.0213 26.6916 39.3196 25.47 39.3196ZM25.47 36.7699C26.3033 36.7699 26.9686 36.3509 27.4657 35.5128C27.9629 34.6747 28.2091 33.4176 28.2044 31.7415C28.2044 30.6383 28.0907 29.7197 27.8635 28.9858C27.6409 28.2519 27.3237 27.7003 26.9118 27.331C26.5046 26.9616 26.024 26.777 25.47 26.777C24.6414 26.777 23.9785 27.1913 23.4814 28.0199C22.9842 28.8485 22.7333 30.089 22.7285 31.7415C22.7285 32.8589 22.8398 33.7917 23.0623 34.5398C23.2896 35.2831 23.6092 35.8419 24.0211 36.2159C24.4331 36.5852 24.916 36.7699 25.47 36.7699ZM33.3162 36.4432V34.0213L39.3887 24.4545H41.4767V27.8068H40.2409L36.4128 33.8651V33.9787H45.0421V36.4432H33.3162ZM40.2978 39V35.7045L40.3546 34.6321V24.4545H43.2381V39H40.2978Z" fill="white"/>
</svg>
