<svg width="56" height="56" viewBox="0 0 56 56" fill="none" xmlns="http://www.w3.org/2000/svg">
<rect width="56" height="56" rx="16" fill="#E6F3FF"/>
<path d="M17.3333 14.6666H38.6667C39.04 14.6666 39.3556 14.7955 39.6133 15.0533C39.8711 15.311 40 15.6266 40 15.9999V39.9999C40 40.3733 39.8711 40.6888 39.6133 40.9466C39.3556 41.2044 39.04 41.3333 38.6667 41.3333H17.3333C16.96 41.3333 16.6444 41.2044 16.3867 40.9466C16.1289 40.6888 16 40.3733 16 39.9999V15.9999C16 15.6266 16.1289 15.311 16.3867 15.0533C16.6444 14.7955 16.96 14.6666 17.3333 14.6666ZM18.6667 17.3333V38.6666H37.3333V17.3333H18.6667ZM21.3333 19.9999H34.6667V25.3333H21.3333V19.9999ZM21.3333 27.9999H24V30.6666H21.3333V27.9999ZM21.3333 33.3333H24V35.9999H21.3333V33.3333ZM26.6667 27.9999H29.3333V30.6666H26.6667V27.9999ZM26.6667 33.3333H29.3333V35.9999H26.6667V33.3333ZM32 27.9999H34.6667V35.9999H32V27.9999Z" fill="#1B365D"/>
</svg>
