<svg width="56" height="56" viewBox="0 0 56 56" fill="none" xmlns="http://www.w3.org/2000/svg">
<rect width="56" height="56" rx="16" fill="#E6F3FF"/>
<path d="M29.3333 15.3334V17.0401L36 19.2534L40.8533 17.6534L41.68 20.1867L37.6533 21.5201L41.76 32.8801C41.0311 33.6445 40.1689 34.2445 39.1733 34.6801C38.1778 35.1156 37.12 35.3334 36 35.3334C34.88 35.3334 33.8222 35.1156 32.8267 34.6801C31.8311 34.2445 30.9689 33.6445 30.24 32.8801L34.3467 21.5201L29.3333 19.8401V38.0001H34.6667V40.6667H21.3333V38.0001H26.6667V19.8401L21.6533 21.5201L25.76 32.8801C25.0311 33.6445 24.1689 34.2445 23.1733 34.6801C22.1778 35.1156 21.12 35.3334 20 35.3334C18.88 35.3334 17.8222 35.1156 16.8267 34.6801C15.8311 34.2445 14.9689 33.6445 14.24 32.8801L18.3467 21.5201L14.32 20.1867L15.1467 17.6534L20 19.2534L26.6667 17.0401V15.3334H29.3333ZM36 24.8001L33.3867 31.9734C34.1867 32.4356 35.0578 32.6667 36 32.6667C36.9422 32.6667 37.8133 32.4356 38.6133 31.9734L36 24.8001ZM20 24.8001L17.3867 31.9734C18.1867 32.4356 19.0578 32.6667 20 32.6667C20.9422 32.6667 21.8133 32.4356 22.6133 31.9734L20 24.8001Z" fill="#1B365D"/>
</svg>
