<svg width="48" height="48" viewBox="0 0 48 48" fill="none" xmlns="http://www.w3.org/2000/svg">
<rect width="48" height="48" rx="24" fill="#E6F3FF"/>
<path d="M30.9475 20H31.875C32.19 20 32.4817 20.0787 32.75 20.2362C33.0183 20.3938 33.2313 20.6067 33.3888 20.875C33.5462 21.1433 33.625 21.435 33.625 21.75V25.25C33.625 25.565 33.5462 25.8567 33.3888 26.125C33.2313 26.3933 33.0183 26.6062 32.75 26.7638C32.4817 26.9212 32.19 27 31.875 27H30.9475C30.8075 28.1433 30.4108 29.1817 29.7575 30.115C29.1042 31.0483 28.2817 31.7775 27.29 32.3025C26.2633 32.8508 25.1667 33.125 24 33.125V31.375C24.945 31.375 25.8258 31.1358 26.6425 30.6575C27.4358 30.1908 28.0658 29.5608 28.5325 28.7675C29.0108 27.9508 29.25 27.07 29.25 26.125V20.875C29.25 19.93 29.0108 19.0492 28.5325 18.2325C28.0658 17.4392 27.4358 16.8092 26.6425 16.3425C25.8258 15.8642 24.945 15.625 24 15.625C23.055 15.625 22.1742 15.8642 21.3575 16.3425C20.5642 16.8092 19.9342 17.4392 19.4675 18.2325C18.9892 19.0492 18.75 19.93 18.75 20.875V27H16.125C15.81 27 15.5183 26.9212 15.25 26.7638C14.9817 26.6062 14.7688 26.3933 14.6112 26.125C14.4537 25.8567 14.375 25.565 14.375 25.25V21.75C14.375 21.435 14.4537 21.1433 14.6112 20.875C14.7688 20.6067 14.9817 20.3938 15.25 20.2362C15.5183 20.0787 15.81 20 16.125 20H17.0525C17.1925 18.8567 17.5892 17.8183 18.2425 16.885C18.8958 15.9517 19.7183 15.2225 20.71 14.6975C21.7367 14.1492 22.8333 13.875 24 13.875C25.1667 13.875 26.2633 14.1492 27.29 14.6975C28.2817 15.2225 29.1042 15.9517 29.7575 16.885C30.4108 17.8183 30.8075 18.8567 30.9475 20ZM16.125 21.75V25.25H17V21.75H16.125ZM31 21.75V25.25H31.875V21.75H31ZM20.29 26.8075L21.2175 25.32C22.0692 25.8567 22.9967 26.125 24 26.125C25.0033 26.125 25.9308 25.8567 26.7825 25.32L27.71 26.8075C27.1617 27.1575 26.5725 27.4229 25.9425 27.6037C25.3125 27.7846 24.665 27.875 24 27.875C23.335 27.875 22.6875 27.7846 22.0575 27.6037C21.4275 27.4229 20.8383 27.1575 20.29 26.8075Z" fill="#1B365D"/>
</svg>
