<svg width="48" height="48" viewBox="0 0 48 48" fill="none" xmlns="http://www.w3.org/2000/svg">
<rect width="48" height="48" rx="24" fill="#E6F3FF"/>
<path d="M28.375 26.51V32.5125C28.375 32.6408 28.3313 32.7458 28.2437 32.8275C28.1562 32.9091 28.0542 32.95 27.9375 32.95C27.8558 32.95 27.78 32.9325 27.71 32.8975L24 30.675L20.29 32.8975C20.185 32.9558 20.0742 32.9704 19.9575 32.9412C19.8408 32.9121 19.7533 32.845 19.695 32.74C19.6483 32.67 19.625 32.5941 19.625 32.5125V26.51C18.8083 25.8566 18.1725 25.0633 17.7175 24.13C17.2392 23.1616 17 22.135 17 21.05C17 19.7783 17.3208 18.6 17.9625 17.515C18.5808 16.4533 19.415 15.6133 20.465 14.995C21.55 14.365 22.7283 14.05 24 14.05C25.2717 14.05 26.45 14.365 27.535 14.995C28.585 15.6133 29.4192 16.4533 30.0375 17.515C30.6792 18.6 31 19.7783 31 21.05C31 22.135 30.7608 23.1616 30.2825 24.13C29.8275 25.0633 29.1917 25.8566 28.375 26.51ZM21.375 27.525V30.2025L24 28.6275L26.625 30.2025V27.525C25.785 27.875 24.91 28.05 24 28.05C23.09 28.05 22.215 27.8808 21.375 27.5425V27.525ZM24 26.3C24.945 26.3 25.8258 26.0608 26.6425 25.5825C27.4358 25.1158 28.0658 24.4858 28.5325 23.6925C29.0108 22.8758 29.25 21.9921 29.25 21.0412C29.25 20.0904 29.0108 19.2066 28.5325 18.39C28.0658 17.5966 27.4358 16.9725 26.6425 16.5175C25.8258 16.0391 24.945 15.8 24 15.8C23.055 15.8 22.1742 16.0391 21.3575 16.5175C20.5642 16.9725 19.9342 17.5966 19.4675 18.39C18.9892 19.2066 18.75 20.0904 18.75 21.0412C18.75 21.9921 18.9892 22.8758 19.4675 23.6925C19.9342 24.4858 20.5642 25.1158 21.3575 25.5825C22.1742 26.0608 23.055 26.3 24 26.3Z" fill="#1B365D"/>
</svg>
