<svg width="48" height="48" viewBox="0 0 48 48" fill="none" xmlns="http://www.w3.org/2000/svg">
<rect width="48" height="48" rx="24" fill="#E6F3FF"/>
<path d="M24 13.875L31.1925 15.4675C31.3908 15.5142 31.5542 15.6192 31.6825 15.7825C31.8108 15.9458 31.875 16.1267 31.875 16.325V25.0575C31.875 25.9442 31.6679 26.7725 31.2537 27.5425C30.8396 28.3125 30.265 28.9425 29.53 29.4325L24 33.125L18.47 29.4325C17.735 28.9425 17.1604 28.3125 16.7462 27.5425C16.3321 26.7725 16.125 25.9442 16.125 25.0575V16.325C16.125 16.1267 16.1892 15.9458 16.3175 15.7825C16.4458 15.6192 16.6092 15.5142 16.8075 15.4675L24 13.875ZM24 15.66L17.875 17.025V25.0575C17.875 25.6525 18.0121 26.2067 18.2863 26.72C18.5604 27.2333 18.9425 27.6533 19.4325 27.98L24 31.025L28.5675 27.98C29.0575 27.6533 29.4396 27.2333 29.7137 26.72C29.9879 26.2067 30.125 25.6525 30.125 25.0575V17.025L24 15.66ZM27.9025 20.1925L29.1275 21.435L23.5625 27L19.8525 23.29L21.095 22.0475L23.5625 24.5325L27.9025 20.1925Z" fill="#1B365D"/>
</svg>
